<svg id="driving-schools" xmlns="http://www.w3.org/2000/svg" width="21" height="21" viewBox="0 0 21 21">
  <g id="Group_586" data-name="Group 586" transform="translate(8.4 9.45)">
    <g id="Group_585" data-name="Group 585">
      <path id="Path_667" data-name="Path 667" d="M194.1,216a2.1,2.1,0,1,0,2.1,2.1A2.1,2.1,0,0,0,194.1,216Zm0,3.5a1.4,1.4,0,1,1,1.4-1.4A1.4,1.4,0,0,1,194.1,219.5Z" transform="translate(-192 -216)" fill="#62259f"/>
    </g>
  </g>
  <g id="Group_588" data-name="Group 588">
    <g id="Group_587" data-name="Group 587">
      <path id="Path_668" data-name="Path 668" d="M10.5,0A10.5,10.5,0,1,0,21,10.5,10.512,10.512,0,0,0,10.5,0Zm0,20.3a9.8,9.8,0,1,1,9.8-9.8A9.811,9.811,0,0,1,10.5,20.3Z" fill="#62259f"/>
    </g>
  </g>
  <g id="Group_590" data-name="Group 590" transform="translate(2.1 2.1)">
    <g id="Group_589" data-name="Group 589">
      <path id="Path_669" data-name="Path 669" d="M56.4,48a8.4,8.4,0,1,0,8.4,8.4A8.41,8.41,0,0,0,56.4,48Zm0,.7a7.711,7.711,0,0,1,7.185,4.936l-2.622.874a3.782,3.782,0,0,1-2.739-.133,4.5,4.5,0,0,0-3.647,0l-.133.059a3.8,3.8,0,0,1-2.516.2l-2.8-.748A7.712,7.712,0,0,1,56.4,48.7Zm-7.7,7.7c0-.071,0-.142.005-.213l.243.081a9.332,9.332,0,0,1,6.325,7.748A7.711,7.711,0,0,1,48.7,56.4Zm7.7,7.7c-.139,0-.277,0-.414-.011A10.029,10.029,0,0,0,49.17,55.6l-.412-.137a7.655,7.655,0,0,1,.166-.909l2.823.753a4.5,4.5,0,0,0,2.981-.235l.133-.059a3.794,3.794,0,0,1,3.08,0,4.481,4.481,0,0,0,3.244.156l2.622-.874a7.641,7.641,0,0,1,.235,1.168l-.412.137a10.029,10.029,0,0,0-6.816,8.484C56.677,64.1,56.539,64.1,56.4,64.1Zm1.126-.083a9.332,9.332,0,0,1,6.325-7.748l.243-.081c0,.071.005.141.005.213A7.711,7.711,0,0,1,57.526,64.017Z" transform="translate(-48 -48)" fill="#62259f"/>
    </g>
  </g>
</svg>
