<svg xmlns="http://www.w3.org/2000/svg" width="21" height="19.067" viewBox="0 0 21 19.067">
  <g id="translate" transform="translate(0 -0.5)">
    <path id="Path_657" data-name="Path 657" d="M19.306,6.935h-6.1V2.194A1.7,1.7,0,0,0,11.516.5H1.694A1.7,1.7,0,0,0,0,2.194V7.952a1.7,1.7,0,0,0,1.355,1.66v3.181a.339.339,0,0,0,.581.237L5.224,9.645H7.79v4.742a1.7,1.7,0,0,0,1.694,1.694h6.292l3.288,3.384a.339.339,0,0,0,.581-.237V16.047A1.7,1.7,0,0,0,21,14.387V8.629a1.7,1.7,0,0,0-1.694-1.694ZM5.081,8.968a.338.338,0,0,0-.243.1L2.032,11.957V9.306a.339.339,0,0,0-.339-.339A1.016,1.016,0,0,1,.677,7.952V2.194A1.016,1.016,0,0,1,1.694,1.177h9.823a1.016,1.016,0,0,1,1.016,1.016V6.935H9.484a1.681,1.681,0,0,0-1.12.433L6.406,5.411,7.592,4.226h.876a.339.339,0,0,0,0-.677H6.435V2.871a.339.339,0,1,0-.677,0v.677H4.065a.339.339,0,0,0,0,.677H6.634L3.317,7.543a.339.339,0,1,0,.479.479L5.927,5.89,7.89,7.852a.341.341,0,0,0,.072.048,1.671,1.671,0,0,0-.171.729v.339Zm15.242,5.419A1.016,1.016,0,0,1,19.306,15.4a.339.339,0,0,0-.339.339v2.652L16.162,15.5a.338.338,0,0,0-.243-.1H9.484a1.016,1.016,0,0,1-1.016-1.016V8.629A1.016,1.016,0,0,1,9.484,7.613h9.823a1.016,1.016,0,0,1,1.016,1.016Zm0,0" fill="#62259f"/>
    <path id="Path_658" data-name="Path 658" d="M299.293,219.073a.332.332,0,0,0-.222-.556l-.73-1.825a.339.339,0,0,0-.3-.213.322.322,0,0,0-.317.187l-1.694,3.387a.339.339,0,1,0,.606.3l.584-1.167h1.389l.457,1.142a.338.338,0,0,0,.316.213.334.334,0,0,0,.126-.024.339.339,0,0,0,.189-.44Zm-1.735-.562.433-.867.347.867Zm0,0" transform="translate(-283.462 -206.834)" fill="#62259f"/>
    <path id="Path_659" data-name="Path 659" d="M402.71,192.5h-2.371a.339.339,0,1,0,0,.677h2.371a.339.339,0,1,0,0-.677Zm0,0" transform="translate(-383.065 -183.871)" fill="#62259f"/>
    <path id="Path_660" data-name="Path 660" d="M376.21,192.541a.35.35,0,0,0-.112.071.355.355,0,0,0-.1.24.339.339,0,1,0,.677,0,.356.356,0,0,0-.1-.24A.339.339,0,0,0,376.21,192.541Zm0,0" transform="translate(-360.081 -183.885)" fill="#62259f"/>
    <path id="Path_661" data-name="Path 661" d="M216.339,33.177h2.371a.339.339,0,1,0,0-.677h-2.371a.339.339,0,0,0,0,.677Zm0,0" transform="translate(-206.855 -30.645)" fill="#62259f"/>
    <path id="Path_662" data-name="Path 662" d="M192.1,33.076a.335.335,0,0,0,.369.071.394.394,0,0,0,.112-.071.335.335,0,0,0,.071-.369.39.39,0,0,0-.071-.112.334.334,0,0,0-.054-.041.188.188,0,0,0-.058-.03.206.206,0,0,0-.065-.02.311.311,0,0,0-.193.02.35.35,0,0,0-.112.071.39.39,0,0,0-.071.112.318.318,0,0,0,0,.257A.394.394,0,0,0,192.1,33.076Zm0,0" transform="translate(-183.87 -30.642)" fill="#62259f"/>
  </g>
</svg>
