<svg xmlns="http://www.w3.org/2000/svg" width="21" height="18.866" viewBox="0 0 21 18.866">
  <g id="design" transform="translate(0 -16.512)">
    <path id="Path_639" data-name="Path 639" d="M44.841,205.613a1.716,1.716,0,0,0-1.059-.368,1.7,1.7,0,0,0-1.33.635,1.683,1.683,0,0,0,.27,2.378,1.715,1.715,0,0,0,1.059.368,1.7,1.7,0,0,0,1.33-.635,1.683,1.683,0,0,0-.27-2.377Zm-.334,1.892a.934.934,0,0,1-1.3.145.908.908,0,0,1-.147-1.284.935.935,0,0,1,1.3-.145.907.907,0,0,1,.147,1.283Z" transform="translate(-39.361 -176.539)" fill="#62259f"/>
    <path id="Path_640" data-name="Path 640" d="M165.643,100.538a1.7,1.7,0,0,0,1.6-1.136,1.669,1.669,0,0,0-.075-1.289,1.707,1.707,0,0,0-2.27-.789,1.684,1.684,0,0,0-.794,2.257A1.715,1.715,0,0,0,165.643,100.538Zm-.878-1.99a.911.911,0,0,1,.471-.524.932.932,0,0,1,1.239.428.9.9,0,0,1,.041.694.912.912,0,0,1-.471.525.926.926,0,0,1-.4.091.936.936,0,0,1-.838-.52A.9.9,0,0,1,164.765,98.548Z" transform="translate(-153.346 -75.435)" fill="#62259f"/>
    <path id="Path_641" data-name="Path 641" d="M105.858,58.759a1.724,1.724,0,0,0,.379.042,1.691,1.691,0,0,0,1.658-1.313,1.673,1.673,0,0,0-.217-1.272,1.69,1.69,0,0,0-1.064-.752,1.723,1.723,0,0,0-.381-.043,1.689,1.689,0,0,0-1.656,1.314,1.669,1.669,0,0,0,.216,1.272A1.688,1.688,0,0,0,105.858,58.759Zm-.526-1.85a.917.917,0,0,1,.9-.712.947.947,0,0,1,.209.024.92.92,0,0,1,.58.409.9.9,0,0,1,.117.685.93.93,0,0,1-.9.711.949.949,0,0,1-.209-.023.918.918,0,0,1-.58-.409A.9.9,0,0,1,105.333,56.909Z" transform="translate(-97.78 -36.395)" fill="#62259f"/>
    <path id="Path_642" data-name="Path 642" d="M37.372,78.437a1.684,1.684,0,0,0,.27-2.378,1.712,1.712,0,0,0-2.389-.267,1.683,1.683,0,0,0-.269,2.378,1.709,1.709,0,0,0,2.389.267Zm-1.785-.753a.908.908,0,0,1,.146-1.284.936.936,0,0,1,1.3.145.909.909,0,0,1-.147,1.284.934.934,0,0,1-1.3-.145Z" transform="translate(-32.374 -55.107)" fill="#62259f"/>
    <path id="Path_643" data-name="Path 643" d="M20.852,19.537a.512.512,0,0,0-.375-.148c-.221,0-.809,0-4.377,3.036l-.217.185a9.513,9.513,0,0,0-8.9-6.1h0a9.334,9.334,0,0,0-4.438,1.276C.9,18.753,0,20.043,0,21.421a3.328,3.328,0,0,0,1.693,2.918c.615.456,1.1.816,1.1,1.605s-.485,1.149-1.1,1.6A3.324,3.324,0,0,0,0,30.466c0,1.378.9,2.668,2.546,3.634a9.341,9.341,0,0,0,4.44,1.278h0a9.486,9.486,0,0,0,6.722-2.76A9.325,9.325,0,0,0,16.5,26.05c.6-.685,1.185-1.366,1.717-2.007.911-1.1,1.611-2,2.081-2.691C20.92,20.44,21.193,19.881,20.852,19.537ZM13.168,32.068A8.715,8.715,0,0,1,6.992,34.6h0c-2.5,0-6.211-1.738-6.211-4.137a2.579,2.579,0,0,1,1.378-2.295,2.462,2.462,0,0,0,0-4.455,2.583,2.583,0,0,1-1.379-2.3c0-1.473,1.354-2.49,2.162-2.964a8.642,8.642,0,0,1,4.045-1.169h0a8.737,8.737,0,0,1,8.272,5.865c-1.681,1.468-3.5,3.161-4.858,4.521-2.252.292-2.559,1.792-2.783,2.9-.191.939-.315,1.393-1.04,1.451a.388.388,0,0,0-.117.745,7.1,7.1,0,0,0,2.45.472h0a3.966,3.966,0,0,0,2.3-.65,4,4,0,0,0,1.553-2.5c.886-.9,1.9-1.977,2.9-3.091A8.556,8.556,0,0,1,13.168,32.068Zm-1.185-2.059a2.917,2.917,0,0,1-3.075,2.453h0A5.814,5.814,0,0,1,7.72,32.33a3.121,3.121,0,0,0,.654-1.606c.213-1.047.414-2.038,2.062-2.274Zm5.353-6.122c-1.537,1.831-3.4,3.887-4.928,5.45l-.237-.239-1.046-1.054c1.388-1.382,3.169-3.03,4.831-4.472h0c.194-.168.386-.334.576-.5A29.794,29.794,0,0,1,19.987,20.4,29.867,29.867,0,0,1,17.336,23.886Z" transform="translate(0)" fill="#62259f"/>
  </g>
</svg>
