<svg xmlns="http://www.w3.org/2000/svg" width="21" height="11.801" viewBox="0 0 21 11.801">
  <g id="sport" transform="translate(0 -14.017)">
    <path id="Clocks" d="M20.679,18.026a1.1,1.1,0,0,0-.843-.412h-.477v-.385a1.3,1.3,0,0,0-1.34-1.255H17.39v-.711a1.241,1.241,0,0,0-.391-.9,1.387,1.387,0,0,0-1.842,0,1.241,1.241,0,0,0-.391.9V18.6H6.234V15.263a1.24,1.24,0,0,0-.391-.9,1.387,1.387,0,0,0-1.842,0,1.24,1.24,0,0,0-.391.9v.711H2.9a1.3,1.3,0,0,0-.884.337,1.158,1.158,0,0,0-.38.848v.455H1.168a1.108,1.108,0,0,0-.846.413A1.442,1.442,0,0,0,0,18.951v1.921a1.44,1.44,0,0,0,.322.923,1.108,1.108,0,0,0,.846.413h.472v.455a1.159,1.159,0,0,0,.38.848,1.3,1.3,0,0,0,.883.337h.705v.711a1.24,1.24,0,0,0,.391.9,1.354,1.354,0,0,0,1.843,0,1.24,1.24,0,0,0,.391-.9V21.224h8.531V24.56a1.24,1.24,0,0,0,.391.9,1.354,1.354,0,0,0,1.843,0,1.241,1.241,0,0,0,.391-.9v-.711h.629a1.3,1.3,0,0,0,1.34-1.255v-.385h.477a1.106,1.106,0,0,0,.843-.412A1.434,1.434,0,0,0,21,20.878V18.946A1.436,1.436,0,0,0,20.679,18.026ZM1.168,21.552a.449.449,0,0,1-.342-.177.793.793,0,0,1-.17-.5V18.951a.794.794,0,0,1,.17-.5.449.449,0,0,1,.342-.177h.472v3.281H1.168ZM2.9,23.193a.656.656,0,0,1-.439-.164.494.494,0,0,1-.168-.365v-5.5a.493.493,0,0,1,.167-.364.658.658,0,0,1,.44-.165h.705v6.562ZM5.578,24.56a.573.573,0,0,1-.185.419.723.723,0,0,1-.941,0,.573.573,0,0,1-.186-.419v-9.3a.573.573,0,0,1,.185-.419.7.7,0,0,1,.942,0,.574.574,0,0,1,.185.419v9.3Zm.656-3.992V19.255h8.531v1.312Zm10.5,3.992a.573.573,0,0,1-.185.419.723.723,0,0,1-.941,0,.573.573,0,0,1-.186-.419v-9.3a.573.573,0,0,1,.185-.419.7.7,0,0,1,.942,0,.573.573,0,0,1,.185.419v9.3ZM18.7,22.594a.646.646,0,0,1-.683.6H17.39V16.63h.629a.646.646,0,0,1,.683.6v5.364Zm1.641-1.716a.79.79,0,0,1-.169.5.445.445,0,0,1-.339.176h-.477V18.271h.477a.445.445,0,0,1,.339.176.787.787,0,0,1,.169.5Z" transform="translate(0)" fill="#62259f"/>
  </g>
</svg>
