<svg xmlns="http://www.w3.org/2000/svg" width="21" height="18.9" viewBox="0 0 21 18.9">
  <g id="professions" transform="translate(-1332 -402.999)">
    <path id="suitcase" d="M19.95,3.15H15.4V1.75A1.752,1.752,0,0,0,13.65,0H7.35A1.752,1.752,0,0,0,5.6,1.75v1.4H1.05A1.05,1.05,0,0,0,0,4.2v7.791a1.055,1.055,0,0,0,.7.988V17.85A1.05,1.05,0,0,0,1.75,18.9h17.5a1.05,1.05,0,0,0,1.05-1.05V12.979a1.055,1.055,0,0,0,.7-.988V4.2a1.05,1.05,0,0,0-1.05-1.05ZM6.3,1.75A1.05,1.05,0,0,1,7.35.7h6.3A1.05,1.05,0,0,1,14.7,1.75v1.4H14V1.75a.35.35,0,0,0-.35-.35H7.35A.35.35,0,0,0,7,1.75v1.4H6.3Zm7,1.4H7.7V2.1h5.6Zm6.3,14.7a.35.35,0,0,1-.35.35H1.75a.35.35,0,0,1-.35-.35V13.1l7.7,1.062v.889a1.05,1.05,0,0,0,1.05,1.05h.7a1.05,1.05,0,0,0,1.05-1.05v-.889L19.6,13.1Zm-8.4-2.8a.35.35,0,0,1-.35.35h-.7a.35.35,0,0,1-.35-.35v-2.1a.35.35,0,0,1,.35-.35h.7a.35.35,0,0,1,.35.35Zm9.1-3.059a.35.35,0,0,1-.3.347l-.1.013-8,1.1v-.5a1.05,1.05,0,0,0-1.05-1.05h-.7A1.05,1.05,0,0,0,9.1,12.95v.5L1,12.338a.35.35,0,0,1-.3-.347V4.2a.35.35,0,0,1,.35-.35h18.9a.35.35,0,0,1,.35.35Zm0,0" transform="translate(1332 402.999)" fill="#62259f"/>
  </g>
</svg>
