<svg xmlns="http://www.w3.org/2000/svg" width="21" height="21" viewBox="0 0 21 21">
  <g id="programming" transform="translate(0 0)">
    <path id="Path_644" data-name="Path 644" d="M20.167,4.22a4.7,4.7,0,0,0-.5-1.194l.393-.787-1.3-1.3-.787.393a4.684,4.684,0,0,0-1.194-.5L16.5,0H14.659l-.278.833a4.672,4.672,0,0,0-1.194.5L12.4.936l-1.3,1.3.393.787a4.71,4.71,0,0,0-.5,1.194l-.833.278v.922H1.693A1.7,1.7,0,0,0,0,7.113V17.274a1.7,1.7,0,0,0,1.694,1.694H6.1v1.355H4.742V21H16.258v-.677H14.9V18.968h4.4A1.7,1.7,0,0,0,21,17.274V4.5Zm-5.942,16.1H6.774V18.968h7.452Zm5.081-2.032H1.693A1.017,1.017,0,0,1,.677,17.274v-.339H20.322v.339A1.017,1.017,0,0,1,19.306,18.29Zm1.016-2.032H.677V7.113A1.017,1.017,0,0,1,1.693,6.1h8.468v.244l.833.278a4.7,4.7,0,0,0,.5,1.194L11.1,8.6l1.3,1.3.787-.393a4.684,4.684,0,0,0,1.194.5l.278.833H16.5l.278-.833a4.672,4.672,0,0,0,1.194-.5l.787.393,1.3-1.3-.393-.787a4.717,4.717,0,0,0,.5-1.194l.155-.052Zm0-10.406-.731.244-.041.188A4.034,4.034,0,0,1,19,7.613l-.1.162.346.691-.613.613-.691-.346-.162.1a4.036,4.036,0,0,1-1.328.552l-.188.041-.244.731h-.867L14.9,9.43l-.188-.041a4.033,4.033,0,0,1-1.328-.552l-.162-.1-.691.346-.613-.613.346-.691-.1-.162a4.028,4.028,0,0,1-.552-1.328L11.57,6.1l-.731-.244V4.986l.731-.244.041-.188a4.034,4.034,0,0,1,.552-1.328l.1-.162-.346-.691.613-.613.691.346.162-.1a4.036,4.036,0,0,1,1.328-.552l.188-.041.244-.731h.867l.244.731.188.041A4.033,4.033,0,0,1,17.774,2l.162.1.691-.346.613.613-.346.691.1.162a4.028,4.028,0,0,1,.552,1.328l.041.188.731.244Zm0,0" fill="#62259f"/>
    <path id="Path_645" data-name="Path 645" d="M291.387,48a3.387,3.387,0,1,0,3.387,3.387A3.391,3.391,0,0,0,291.387,48Zm0,6.1a2.71,2.71,0,1,1,2.71-2.71A2.713,2.713,0,0,1,291.387,54.1Zm0,0" transform="translate(-275.807 -45.968)" fill="#62259f"/>
    <path id="Path_646" data-name="Path 646" d="M337.355,96a1.355,1.355,0,1,0,1.355,1.355A1.356,1.356,0,0,0,337.355,96Zm0,2.032a.677.677,0,1,1,.677-.677A.678.678,0,0,1,337.355,98.032Zm0,0" transform="translate(-321.774 -91.936)" fill="#62259f"/>
    <path id="Path_647" data-name="Path 647" d="M32.677,169.016v.339a.678.678,0,0,1-.677.677v.677a.678.678,0,0,1,.677.677v.339a1.017,1.017,0,0,0,1.016,1.016h.339v-.677h-.339a.339.339,0,0,1-.339-.339v-.339a1.351,1.351,0,0,0-.46-1.016,1.351,1.351,0,0,0,.46-1.016v-.339a.339.339,0,0,1,.339-.339h.339V168h-.339A1.017,1.017,0,0,0,32.677,169.016Zm0,0" transform="translate(-30.645 -160.887)" fill="#62259f"/>
    <path id="Path_648" data-name="Path 648" d="M265.355,241.355v-.339A1.017,1.017,0,0,0,264.339,240H264v.677h.339a.339.339,0,0,1,.339.339v.339a1.353,1.353,0,0,1,0,2.032v.339a.339.339,0,0,1-.339.339H264v.677h.339a1.017,1.017,0,0,0,1.016-1.016v-.339a.678.678,0,0,1,.677-.677v-.677A.678.678,0,0,1,265.355,241.355Zm0,0" transform="translate(-252.823 -229.839)" fill="#62259f"/>
    <path id="Path_649" data-name="Path 649" d="M96,176h6.435v.677H96Zm0,0" transform="translate(-91.936 -168.548)" fill="#62259f"/>
    <path id="Path_650" data-name="Path 650" d="M128,208h5.081v.677H128Zm0,0" transform="translate(-122.581 -199.194)" fill="#62259f"/>
    <path id="Path_651" data-name="Path 651" d="M96,208h.677v.677H96Zm0,0" transform="translate(-91.936 -199.194)" fill="#62259f"/>
    <path id="Path_652" data-name="Path 652" d="M96,240h6.435v.677H96Zm0,0" transform="translate(-91.936 -229.839)" fill="#62259f"/>
    <path id="Path_653" data-name="Path 653" d="M96,272h6.435v.677H96Zm0,0" transform="translate(-91.936 -260.484)" fill="#62259f"/>
    <path id="Path_654" data-name="Path 654" d="M232,304h.677v.677H232Zm0,0" transform="translate(-222.178 -291.129)" fill="#62259f"/>
    <path id="Path_655" data-name="Path 655" d="M96,304h5.081v.677H96Zm0,0" transform="translate(-91.936 -291.129)" fill="#62259f"/>
    <path id="Path_656" data-name="Path 656" d="M96,336h6.435v.677H96Zm0,0" transform="translate(-91.936 -321.774)" fill="#62259f"/>
  </g>
</svg>
