<svg xmlns="http://www.w3.org/2000/svg" width="165.365" height="36.963" viewBox="0 0 165.365 36.963"><g transform="translate(12048.557 16738)"><g transform="translate(-12328 -16797)"><path d="M20.572-13.357h5.476V-2.849A15.645,15.645,0,0,1,21.164-.407a18.962,18.962,0,0,1-5.587.851A15.14,15.14,0,0,1,8.325-1.277,12.808,12.808,0,0,1,3.275-6.05a13.15,13.15,0,0,1-1.832-6.9,13.15,13.15,0,0,1,1.832-6.9,12.746,12.746,0,0,1,5.088-4.773,15.437,15.437,0,0,1,7.326-1.72A16.032,16.032,0,0,1,21.867-25.2a12.243,12.243,0,0,1,4.662,3.33l-3.848,3.552a8.9,8.9,0,0,0-6.7-2.923,9.141,9.141,0,0,0-4.4,1.036,7.432,7.432,0,0,0-3,2.923A8.6,8.6,0,0,0,7.511-12.95,8.529,8.529,0,0,0,8.584-8.658a7.59,7.59,0,0,0,2.978,2.941A8.828,8.828,0,0,0,15.91-4.662a9.715,9.715,0,0,0,4.662-1.11Zm31.6,3.478q0,.111-.111,1.554H37A4.69,4.69,0,0,0,38.924-5.4,6.373,6.373,0,0,0,42.7-4.329a7.642,7.642,0,0,0,2.756-.463,6.677,6.677,0,0,0,2.239-1.462l3.071,3.33Q47.952.3,42.55.3a12.994,12.994,0,0,1-5.957-1.314,9.629,9.629,0,0,1-4-3.645,10.042,10.042,0,0,1-1.406-5.291,10.172,10.172,0,0,1,1.387-5.272,9.72,9.72,0,0,1,3.811-3.663A11.189,11.189,0,0,1,41.81-20.2,11.1,11.1,0,0,1,47.1-18.944a9.182,9.182,0,0,1,3.719,3.607A10.757,10.757,0,0,1,52.17-9.879ZM41.847-15.836a4.971,4.971,0,0,0-3.293,1.11,4.725,4.725,0,0,0-1.628,3.034h9.805A4.773,4.773,0,0,0,45.1-14.708,4.866,4.866,0,0,0,41.847-15.836ZM70.337-.962a5.933,5.933,0,0,1-2.09.944A10.569,10.569,0,0,1,65.638.3a7.75,7.75,0,0,1-5.494-1.813A6.938,6.938,0,0,1,58.2-6.845v-8.177H55.13v-4.44H58.2v-4.847h5.772v4.847h4.958v4.44H63.973v8.1a2.717,2.717,0,0,0,.647,1.942,2.4,2.4,0,0,0,1.831.685,3.71,3.71,0,0,0,2.331-.74Z" transform="translate(278 95)" fill="#0a0a0a"/><path d="M0,32.4V0" transform="translate(430.748 63)" fill="none" stroke="#62259f" stroke-width="5.5"/><path d="M.015,36.4V0" transform="translate(442.043 59)" fill="none" stroke="#4a1281" stroke-width="5.5"/><path d="M11.581.444A21.191,21.191,0,0,1,5.642-.389,13.928,13.928,0,0,1,1.036-2.553L3.071-7.067A13.809,13.809,0,0,0,7.03-5.106a14.87,14.87,0,0,0,4.588.74,7.33,7.33,0,0,0,3.774-.759,2.292,2.292,0,0,0,1.221-2.016,1.928,1.928,0,0,0-.722-1.536,5.47,5.47,0,0,0-1.85-.981q-1.129-.37-3.053-.814a42.2,42.2,0,0,1-4.847-1.406A7.875,7.875,0,0,1,2.9-14.134a6.1,6.1,0,0,1-1.35-4.144,7.209,7.209,0,0,1,1.221-4.089,8.213,8.213,0,0,1,3.681-2.9,15.023,15.023,0,0,1,6.013-1.073,19.909,19.909,0,0,1,4.847.592,14.319,14.319,0,0,1,4.144,1.7L19.61-19.5a14.442,14.442,0,0,0-7.178-2.035,6.73,6.73,0,0,0-3.719.814,2.485,2.485,0,0,0-1.2,2.146A2.1,2.1,0,0,0,8.9-16.594a21.785,21.785,0,0,0,4.236,1.276,42.2,42.2,0,0,1,4.847,1.406,8.026,8.026,0,0,1,3.238,2.22,5.952,5.952,0,0,1,1.35,4.107,7.072,7.072,0,0,1-1.24,4.052,8.328,8.328,0,0,1-3.719,2.9A15.159,15.159,0,0,1,11.581.444ZM36.3-7.807,33.522-5.069V0H27.75V-27.454h5.772v15.54l8.436-7.992H48.84L40.552-11.47,49.58,0H42.587Zm17.2-12.1h5.772V0H53.5Zm2.886-2.775a3.661,3.661,0,0,1-2.59-.925,3,3,0,0,1-1-2.294,3,3,0,0,1,1-2.294,3.661,3.661,0,0,1,2.59-.925,3.753,3.753,0,0,1,2.59.888,2.847,2.847,0,0,1,1,2.22,3.142,3.142,0,0,1-1,2.386A3.619,3.619,0,0,1,56.388-22.681Z" transform="translate(362.964 95.52)" fill="#7835bb"/></g></g></svg>